<svg width="155" height="33" viewBox="0 0 155 33" fill="none" xmlns="http://www.w3.org/2000/svg">
<path d="M31.6072 17.1517C31.6166 16.936 31.6214 16.7186 31.6214 16.5001C31.6214 7.85791 24.5911 0.827637 15.9489 0.827637C8.3151 0.827637 1.93926 6.31274 0.555335 13.5493C0.372684 14.5048 0.276772 15.4917 0.276772 16.5001C0.276772 16.6224 0.277606 16.745 0.280664 16.8662L1.60065 17.1637L3.62204 17.6185L10.1844 19.0958L14.4493 20.0561L20.0409 21.3157L20.039 21.3177L26.6022 22.7958C26.5955 22.8061 26.5891 22.8175 26.5825 22.8278C24.4207 26.448 20.4635 28.877 15.9489 28.877C10.8008 28.877 6.37655 25.7183 4.51417 21.2368L0.766066 20.3933C2.50139 27.1581 8.65038 32.1725 15.9489 32.1725C22.0573 32.1725 27.3609 28.6596 29.9444 23.5484C30.4426 22.5654 30.8388 21.5231 31.1212 20.4358L27.9033 19.7108C27.9005 19.7222 27.8966 19.7344 27.8938 19.7455L25.1446 19.127H25.1438L21.9756 18.4133C21.9795 18.4019 21.9831 18.3897 21.987 18.3786C21.987 18.3786 21.9873 18.3779 21.9878 18.3766C21.9887 18.3719 21.9906 18.3683 21.9917 18.3636C22.1735 17.7742 22.2714 17.1489 22.2714 16.5003C22.2714 15.9863 22.2102 15.4873 22.0935 15.0091C21.4221 12.2401 18.9225 10.1773 15.9492 10.1773C12.766 10.1773 10.1249 12.5423 9.69096 15.6071C9.68901 15.6202 9.68707 15.6324 9.6854 15.6457L3.76605 14.3127C3.768 14.3005 3.77078 14.2874 3.77272 14.2752C4.82443 8.50845 9.88418 4.1237 15.9492 4.1237C22.7451 4.1237 28.2783 9.62771 28.3253 16.4122V16.4131L31.6075 17.152L31.6072 17.1517ZM12.9267 16.3363C12.9267 16.3316 12.9275 16.328 12.9275 16.3233C13.0095 14.9015 14.0763 13.7406 15.4535 13.5137H15.4543C15.6153 13.4865 15.7802 13.4723 15.9486 13.4723C16.5889 13.4723 17.1819 13.6727 17.6717 14.0127L17.6737 14.0136C18.4599 14.5607 18.9759 15.4709 18.9759 16.5001C18.9759 16.9012 18.8978 17.2843 18.7546 17.6346C18.7537 17.6385 18.7518 17.643 18.7499 17.6469C18.7499 17.6477 18.749 17.6488 18.749 17.6496C18.7443 17.661 18.7396 17.6713 18.7348 17.6827L15.1647 16.8787L12.9248 16.375C12.9256 16.3619 12.9256 16.3497 12.9267 16.3363Z" fill="#FFF7F2"/>
<path d="M52.5142 18.1196C52.5142 20.8443 50.4364 22.3733 47.4765 22.3733C45.3987 22.3733 43.3013 21.648 41.6547 20.1778L43.4385 18.0412C44.6734 19.0605 45.9672 19.7074 47.5353 19.7074C48.7702 19.7074 49.5151 19.2174 49.5151 18.4137V18.3745C49.5151 17.61 49.0447 17.218 46.7512 16.6299C43.9874 15.9242 42.2036 15.1597 42.2036 12.4351V12.3959C42.2036 9.90642 44.203 8.25986 47.0061 8.25986C49.0055 8.25986 50.7108 8.88712 52.1026 10.0044L50.5344 12.2783C49.3191 11.4354 48.1234 10.9257 46.9669 10.9257C45.8103 10.9257 45.2027 11.455 45.2027 12.1214V12.1606C45.2027 13.0623 45.7907 13.3564 48.1626 13.964C50.946 14.6893 52.5142 15.689 52.5142 18.0804V18.1196ZM66.8755 16.1987C66.8755 20.3543 64.5429 22.3929 60.8577 22.3929C57.1726 22.3929 54.9184 20.3347 54.9184 16.2967V8.45588H57.9371V16.2183C57.9371 18.4529 59.0544 19.6094 60.8969 19.6094C62.7395 19.6094 63.8568 18.4921 63.8568 16.3163V8.45588H66.8755V16.1987ZM81.8095 22.1772H78.2811L75.3408 17.7864H72.969V22.1772H69.9503V8.45588H76.2229C79.4572 8.45588 81.3978 10.1612 81.3978 12.9839V13.0231C81.3978 15.2382 80.2021 16.6299 78.4575 17.2768L81.8095 22.1772ZM78.3399 13.1799V13.1407C78.3399 11.847 77.4382 11.1806 75.9681 11.1806H72.969V15.1205H76.0269C77.497 15.1205 78.3399 14.3365 78.3399 13.1799ZM96.3174 8.45588L90.77 22.2753H88.1041L82.5568 8.45588H85.8891L89.4763 18.1196L93.0634 8.45588H96.3174ZM101.59 22.1772H98.5716V8.45588H101.59V22.1772ZM114.938 18.1196C114.938 20.8443 112.86 22.3733 109.9 22.3733C107.822 22.3733 105.725 21.648 104.079 20.1778L105.862 18.0412C107.097 19.0605 108.391 19.7074 109.959 19.7074C111.194 19.7074 111.939 19.2174 111.939 18.4137V18.3745C111.939 17.61 111.468 17.218 109.175 16.6299C106.411 15.9242 104.627 15.1597 104.627 12.4351V12.3959C104.627 9.90642 106.627 8.25986 109.43 8.25986C111.429 8.25986 113.135 8.88712 114.526 10.0044L112.958 12.2783C111.743 11.4354 110.547 10.9257 109.391 10.9257C108.234 10.9257 107.626 11.455 107.626 12.1214V12.1606C107.626 13.0623 108.215 13.3564 110.586 13.964C113.37 14.6893 114.938 15.689 114.938 18.0804V18.1196ZM120.714 22.1772H117.695V8.45588H120.714V22.1772ZM138.119 15.3166C138.119 19.2174 135.041 22.4125 130.807 22.4125C126.573 22.4125 123.535 19.2566 123.535 15.3558V15.3166C123.535 11.4158 126.613 8.22066 130.847 8.22066C135.081 8.22066 138.119 11.3766 138.119 15.2774V15.3166ZM134.963 15.3558V15.3166C134.963 12.9643 133.238 11.0041 130.807 11.0041C128.377 11.0041 126.691 12.9251 126.691 15.2774V15.3166C126.691 17.6688 128.416 19.629 130.847 19.629C133.277 19.629 134.963 17.708 134.963 15.3558ZM152.989 22.1772H150.421L143.776 13.4544V22.1772H140.797V8.45588H143.58L150.01 16.9043V8.45588H152.989V22.1772Z" fill="#FFF7F2"/>
</svg>
